<?xml version="1.0" encoding="UTF-8" standalone="no"?>
<!DOCTYPE svg PUBLIC "-//W3C//DTD SVG 1.1//EN" "http://www.w3.org/Graphics/SVG/1.1/DTD/svg11.dtd">
<svg width="100%" height="100%" viewBox="0 0 1346 1112" version="1.1" xmlns="http://www.w3.org/2000/svg" xmlns:xlink="http://www.w3.org/1999/xlink" xml:space="preserve" xmlns:serif="http://www.serif.com/" style="fill-rule:evenodd;clip-rule:evenodd;stroke-linecap:round;stroke-linejoin:round;stroke-miterlimit:1.5;">
    <g transform="matrix(1,0,0,1,-182.101,-378.088)">
        <g id="Layer1">
            <path d="M198.234,1258.93C220.77,1223.32 267.709,1202.86 280.101,1162.58C303.199,1087.5 313.56,893.31 336.823,808.432C352.319,751.897 394.108,703.207 419.682,653.316C444.098,605.684 469.776,551.789 490.267,509.086C508.094,471.933 527.359,418.035 542.624,397.096C550.781,385.907 568.254,380.869 581.857,383.451C596.427,386.216 619.341,400.006 630.047,413.688C640.753,427.37 643.871,447.587 646.091,465.545C648.506,485.066 650.142,509.79 644.532,530.819C638.093,554.958 618.231,589.176 607.454,610.38C599.137,626.743 586.438,640.9 579.872,658.041C572.535,677.197 566.072,702.76 563.431,725.318C560.792,747.855 558.541,780.135 564.026,793.389C568.396,803.949 585.363,808.015 596.342,804.841C624.628,796.665 693.459,761.836 733.741,744.33C768.407,729.264 803.846,715.937 838.03,699.806C877.65,681.109 926.748,654.231 971.46,632.15C1016.73,609.794 1066,586.146 1109.65,565.667C1150.68,546.418 1196.06,522.863 1233.36,509.275C1265.69,497.498 1308.86,486.78 1333.48,484.14C1349.56,482.417 1370.44,486.251 1381.08,493.438C1391.44,500.44 1395.37,516.053 1397.32,527.266C1399.25,538.351 1386.57,556.077 1394.57,558.78C1402.57,561.482 1429.25,543.776 1445.31,543.48C1460.8,543.195 1477.8,552.211 1489.14,558.939C1499.09,564.845 1509.72,573.887 1513.32,583.847C1516.92,593.806 1516.63,608.648 1510.74,618.695C1503.47,631.092 1471.87,649.959 1469.69,658.23C1467.51,666.501 1489.69,662.42 1497.64,668.321C1506.27,674.722 1518.08,685.185 1521.45,696.631C1524.83,708.077 1523.6,725.102 1517.88,736.997C1512.16,748.892 1496.55,756.891 1487.15,768C1475.36,781.947 1461.11,806.985 1447.1,820.678C1434.47,833.021 1404.27,843.627 1403.08,850.159C1401.88,856.692 1432.85,852.156 1439.95,859.873C1447.06,867.59 1446.76,884.159 1445.71,896.46C1444.52,910.406 1440.98,929.475 1432.81,943.554C1423.36,959.844 1405.52,979.175 1389.01,994.201C1370.98,1010.62 1342.39,1026.16 1324.58,1042.09C1308.72,1056.27 1298.1,1075.68 1282.15,1089.75C1263.34,1106.34 1233.68,1122.4 1211.76,1141.61C1179.31,1170.03 1103.39,1224.7 1061.95,1264.26C1020.52,1303.82 906.654,1414.21 906.654,1414.21C812.313,1575.76 87.733,1433.53 198.234,1258.93Z" style="fill:rgb(236,209,209);stroke:rgb(4,0,0);stroke-width:9.4px;"/>
            <path d="M1471.33,659.031C1471.33,659.031 1019.4,946.579 1024,945.79" style="fill:none;stroke:black;stroke-width:9.45px;"/>
            <path d="M1403.08,850.159L1070.14,1077.79" style="fill:none;stroke:black;stroke-width:9.45px;"/>
            <path d="M1394.51,558.78C1392.23,558.448 933.751,816.098 946.404,821.537C967.471,830.593 971.52,802.411 971.52,802.411C971.52,802.411 1400.28,559.619 1394.51,558.78Z" style="stroke:black;stroke-width:9.45px;"/>
        </g>
        <g id="Layer2">
            <path d="M598.745,614.251C611.306,605.878 547.323,567.278 499.129,558.78" style="fill:none;stroke:rgb(4,0,0);stroke-width:2.65px;"/>
            <path d="M946.147,821.537C935.753,780.965 903.053,760.174 860.773,734.088" style="fill:none;stroke:rgb(4,0,0);stroke-width:2.65px;"/>
            <path d="M1024,945.792C1022.62,929.186 1011,904.481 986.904,869.914" style="fill:none;stroke:rgb(4,0,0);stroke-width:2.65px;"/>
            <path d="M1070.14,1077.79C1067.12,1049.85 1043.8,1032.92 1039.59,988.871" style="fill:none;stroke:rgb(4,0,0);stroke-width:2.65px;"/>
            <path d="M1070.14,1077.79C1055.61,1105.94 1051.53,1153.44 1054.86,1183.13" style="fill:none;stroke:rgb(4,0,0);stroke-width:2.65px;"/>
            <path d="M549.738,734.088C542.943,710.978 491.111,704.269 441.038,708.088" style="fill:none;stroke:rgb(4,0,0);stroke-width:2.65px;"/>
            <path d="M946.404,1264.26C924.674,1214.13 874.958,1155.79 820.716,1103.03" style="fill:none;stroke:rgb(4,0,0);stroke-width:2.65px;"/>
            <path d="M577.606,1264.26C598.069,1230.36 634.108,1201.85 638.994,1162.56C646.117,1105.27 626.563,1001.2 620.347,920.527" style="fill:none;stroke:rgb(4,0,0);stroke-width:2.65px;"/>
        </g>
    </g>
</svg>
